<?xml version="1.0" standalone="no"?>
<!DOCTYPE svg PUBLIC "-//W3C//DTD SVG 20010904//EN"
 "http://www.w3.org/TR/2001/REC-SVG-20010904/DTD/svg10.dtd">
<svg version="1.0" xmlns="http://www.w3.org/2000/svg"
 width="574.000000pt" height="561.000000pt" viewBox="0 0 574.000000 561.000000"
 preserveAspectRatio="xMidYMid meet">

<g transform="translate(0.000000,561.000000) scale(0.100000,-0.100000)"
fill="#000000" stroke="none">
<path d="M1870 3985 l0 -165 155 0 155 0 0 165 0 165 -155 0 -155 0 0 -165z"/>
<path d="M3630 3995 c0 -117 3 -155 13 -155 6 -1 53 -1 102 -2 l90 -1 3 26 c3
25 1 27 -40 28 -24 1 -56 2 -73 3 l-30 1 -3 128 -3 127 -29 0 -30 0 0 -155z"/>
<path d="M3870 4106 l0 -44 40 0 40 -1 0 45 0 44 -40 0 -40 0 0 -44z"/>
<path d="M3910 3825 c0 -18 5 -25 20 -25 15 0 20 7 20 25 0 18 -5 25 -20 25
-15 0 -20 -7 -20 -25z"/>
<path d="M1780 3605 l0 -115 255 0 255 0 0 115 0 115 -255 0 -255 0 0 -115z"/>
<path d="M3600 3615 l0 -75 65 0 65 0 0 75 0 75 -65 0 -65 0 0 -75z"/>
<path d="M3820 3615 l0 -75 65 0 65 0 0 75 0 75 -65 0 -65 0 0 -75z"/>
<path d="M3750 3495 c0 -20 5 -25 25 -25 20 0 25 5 25 25 0 20 -5 25 -25 25
-20 0 -25 -5 -25 -25z"/>
<path d="M3600 3365 l0 -75 65 0 65 0 0 75 0 75 -65 0 -65 0 0 -75z"/>
<path d="M3820 3365 l0 -75 65 0 65 0 0 75 0 75 -65 0 -65 0 0 -75z"/>
<path d="M2000 3392 c0 -26 2 -28 35 -24 29 3 35 8 35 28 0 21 -5 24 -35 24
-32 0 -35 -3 -35 -28z"/>
<path d="M1780 3315 l0 -75 65 0 65 0 0 75 0 75 -65 0 -65 0 0 -75z"/>
<path d="M2160 3315 l0 -75 65 0 65 0 0 75 0 75 -65 0 -65 0 0 -75z"/>
<path d="M1890 3085 l0 -75 -55 0 -55 0 0 -225 0 -225 255 0 255 0 0 225 0
225 -55 0 -55 0 0 75 0 75 -145 0 -145 0 0 -75z"/>
<path d="M3690 3050 l0 -110 -45 0 -45 0 0 -190 0 -190 175 0 175 0 0 190 0
190 -55 0 -55 0 0 110 0 110 -75 0 -75 0 0 -110z"/>
<path d="M1784 2303 c3 -43 8 -89 10 -103 3 -14 7 -38 10 -55 2 -16 9 -45 15
-63 5 -18 10 -36 10 -40 6 -55 130 -320 177 -375 11 -12 35 -42 54 -67 141
-183 386 -333 627 -386 90 -20 301 -26 383 -12 114 21 304 88 395 141 52 31
185 136 229 181 202 211 316 470 342 779 l7 77 -289 0 -289 0 -3 -58 c-2 -31
-15 -93 -31 -137 -69 -203 -230 -346 -429 -380 -181 -32 -336 19 -473 155
-107 106 -148 195 -173 373 l-7 47 -286 0 -286 0 7 -77z"/>
</g>
</svg>
